<?xml version="1.0" standalone="no"?>
<!DOCTYPE svg PUBLIC "-//W3C//DTD SVG 20010904//EN"
 "http://www.w3.org/TR/2001/REC-SVG-20010904/DTD/svg10.dtd">
<svg version="1.0" xmlns="http://www.w3.org/2000/svg"
 width="200.000000pt" height="200.000000pt" viewBox="0 0 200.000000 200.000000"
 preserveAspectRatio="xMidYMid meet">
<metadata>
Created by potrace 1.14, written by Peter Selinger 2001-2017
</metadata>
<g transform="translate(0.000000,200.000000) scale(0.100000,-0.100000)"
fill="#000000" stroke="none">
<path d="M120 1500 c-18 -18 -20 -33 -20 -134 0 -111 1 -114 26 -131 36 -23
54 -73 54 -150 0 -58 -2 -65 -20 -65 -18 0 -20 7 -20 73 0 92 -15 117 -70 117
-59 0 -70 -23 -70 -142 0 -136 3 -138 155 -138 l115 0 0 -39 c0 -36 -3 -40
-27 -43 -20 -2 -34 -14 -50 -43 -13 -22 -23 -43 -23 -47 0 -5 32 -8 70 -8 l70
0 0 81 c0 79 1 82 34 115 19 19 41 34 50 34 14 0 16 17 16 121 l0 121 34 34
c21 21 44 34 60 34 l26 0 0 89 c0 74 -3 92 -21 115 l-20 26 -175 0 c-161 0
-176 -2 -194 -20z"/>
<path d="M801 1494 c-18 -23 -21 -41 -21 -115 0 -83 1 -89 20 -89 34 0 79 -28
95 -60 11 -21 15 -60 15 -140 0 -93 2 -110 16 -110 8 0 29 -13 45 -29 l29 -29
29 29 c16 16 37 29 45 29 14 0 16 17 16 110 0 80 4 119 15 140 15 30 61 60 90
60 12 0 15 16 15 95 0 138 5 135 -214 135 l-175 0 -20 -26z"/>
<path d="M1491 1494 c-18 -23 -21 -41 -21 -115 l0 -89 26 0 c16 0 39 -13 60
-34 l34 -34 0 -121 c0 -100 3 -121 15 -121 8 0 29 -13 47 -29 32 -28 33 -33
37 -115 l3 -86 69 0 c38 0 69 3 69 8 0 4 -10 25 -23 47 -16 29 -30 41 -50 43
-24 3 -27 7 -27 43 l0 39 115 0 c152 0 155 2 155 138 0 119 -11 142 -70 142
-55 0 -70 -25 -70 -117 0 -66 -2 -73 -20 -73 -18 0 -20 7 -20 65 0 77 18 127
54 150 25 17 26 20 26 131 0 160 9 154 -214 154 l-175 0 -20 -26z"/>
<path d="M461 1224 c-18 -23 -21 -41 -21 -135 0 -98 2 -108 20 -114 44 -14 60
-52 60 -142 0 -75 -2 -84 -17 -81 -15 3 -18 15 -21 68 -3 93 -8 106 -43 120
-27 11 -33 11 -57 -7 -26 -19 -27 -24 -30 -129 -4 -144 -3 -144 155 -144 l114
0 -3 -37 c-3 -33 -7 -38 -31 -41 -20 -3 -32 -13 -47 -42 -11 -22 -20 -44 -20
-50 0 -6 50 -10 140 -10 77 0 140 3 140 8 0 4 -10 25 -23 47 -16 29 -30 41
-50 43 -24 3 -27 7 -27 43 l0 39 114 0 c112 0 115 1 135 26 18 23 21 41 21
121 0 86 -2 96 -25 118 -13 14 -33 25 -45 25 -11 0 -32 -11 -45 -25 -22 -21
-25 -33 -25 -100 0 -70 -2 -75 -21 -75 -20 0 -21 4 -18 86 4 86 4 87 42 119
l37 32 0 109 c0 162 10 154 -210 154 l-179 0 -20 -26z"/>
<path d="M1146 1228 c-12 -17 -16 -49 -16 -132 l0 -109 37 -32 c38 -32 38 -33
42 -119 3 -82 2 -86 -18 -86 -19 0 -21 5 -21 75 0 67 -3 79 -25 100 -13 14
-33 25 -45 25 -11 0 -32 -11 -45 -25 -23 -22 -25 -32 -25 -118 0 -80 3 -98 21
-121 20 -25 23 -26 135 -26 l114 0 0 -39 c0 -36 -3 -40 -27 -43 -20 -2 -34
-14 -50 -43 -13 -22 -23 -43 -23 -47 0 -5 63 -8 140 -8 90 0 140 4 140 10 0 6
-9 28 -20 50 -15 29 -27 39 -47 42 -24 3 -28 8 -31 41 l-3 37 115 0 c156 0
158 2 154 147 -3 102 -4 107 -30 126 -24 18 -30 18 -57 7 -35 -14 -40 -27 -43
-120 -3 -53 -6 -65 -20 -68 -16 -3 -18 6 -18 81 0 90 16 128 60 142 18 6 20
16 20 114 0 94 -3 112 -21 135 l-20 26 -179 0 c-173 0 -179 -1 -194 -22z"/>
</g>
</svg>
